<?xml version="1.0" standalone="no"?>
<!DOCTYPE svg PUBLIC "-//W3C//DTD SVG 20010904//EN"
 "http://www.w3.org/TR/2001/REC-SVG-20010904/DTD/svg10.dtd">
<svg version="1.0" xmlns="http://www.w3.org/2000/svg"
 width="512.000000pt" height="512.000000pt" viewBox="0 0 512.000000 512.000000"
 preserveAspectRatio="xMidYMid meet">
<metadata>
Created by potrace 1.14, written by Peter Selinger 2001-2017
</metadata>
<g transform="translate(0.000000,512.000000) scale(0.100000,-0.100000)"
fill="#000000" stroke="none">
<path d="M989 5116 c-2 -2 -24 -7 -49 -10 -43 -5 -75 -12 -165 -38 -22 -6 -89
-35 -150 -64 -164 -79 -267 -163 -400 -325 -83 -101 -177 -305 -199 -434 -3
-16 -10 -52 -15 -80 -6 -31 -10 -632 -10 -1605 1 -1661 0 -1621 50 -1780 30
-97 111 -256 168 -331 136 -178 327 -319 530 -388 170 -58 55 -55 1776 -58
1699 -3 1649 -4 1815 48 91 28 254 110 325 164 147 111 259 244 337 400 34 68
80 199 92 260 4 17 10 41 13 55 4 14 8 738 9 1610 2 1714 5 1599 -46 1800 -17
68 -113 257 -164 325 -88 116 -230 244 -337 303 -20 11 -45 25 -55 31 -38 21
-116 52 -182 73 -153 47 -142 47 -1788 47 -853 0 -1553 -1 -1555 -3z"/>
</g>
</svg>
